<svg width="467" height="1789" viewBox="0 0 467 1789" fill="none"
  xmlns="http://www.w3.org/2000/svg">
  <path d="M231.753 0C231.753 125.31 404.656 272.006 350.933 392.982C295.012 518.908 64.0926 532.208 64.0926 681.86C64.0926 929.325 450 725.424 450 1023.92C450 1363.24 9 1434 1.92773 1267.1C9.5 1164.5 130.763 1149.83 184.641 1246.89C267.841 1396.78 195.858 1618.98 195.858 1787" stroke="black" stroke-width="3" stroke-linecap="round"/>
  <circle cx="359.335" cy="345.662" r="22.0827" fill="white"/>
  <circle cx="359.335" cy="345.662" r="18.4774" fill="#1A1E40"/>
  <circle cx="246.083" cy="834.083" r="22.0827" fill="white"/>
  <circle cx="246.083" cy="834.083" r="18.4774" fill="#1A1E40"/>
  <circle cx="444.083" cy="1091.08" r="22.0827" fill="white"/>
  <circle cx="444.083" cy="1091.08" r="18.4774" fill="#1A1E40"/>
  <circle cx="202.503" cy="1701.27" r="22.0827" fill="white"/>
  <circle cx="202.503" cy="1701.27" r="18.4774" fill="#1A1E40"/>
  <path d="M219.764 364V360.804L231.767 347.665C233.176 346.126 234.336 344.788 235.247 343.652C236.159 342.504 236.833 341.427 237.271 340.42C237.721 339.402 237.946 338.337 237.946 337.224C237.946 335.946 237.638 334.839 237.023 333.904C236.419 332.969 235.59 332.247 234.537 331.738C233.483 331.229 232.3 330.974 230.986 330.974C229.589 330.974 228.37 331.264 227.328 331.844C226.298 332.413 225.499 333.212 224.931 334.241C224.375 335.271 224.097 336.479 224.097 337.864H219.906C219.906 335.733 220.397 333.863 221.38 332.253C222.362 330.643 223.7 329.388 225.393 328.489C227.097 327.589 229.009 327.139 231.128 327.139C233.259 327.139 235.147 327.589 236.792 328.489C238.437 329.388 239.728 330.602 240.663 332.129C241.598 333.656 242.065 335.354 242.065 337.224C242.065 338.562 241.823 339.87 241.337 341.148C240.864 342.415 240.035 343.83 238.852 345.392C237.68 346.943 236.052 348.837 233.969 351.074L225.801 359.81V360.094H242.705V364H219.764ZM261.898 364.497C259.223 364.497 256.945 363.769 255.062 362.313C253.18 360.845 251.742 358.721 250.748 355.939C249.754 353.145 249.256 349.772 249.256 345.818C249.256 341.888 249.754 338.532 250.748 335.751C251.754 332.957 253.198 330.826 255.08 329.359C256.974 327.879 259.247 327.139 261.898 327.139C264.55 327.139 266.817 327.879 268.699 329.359C270.593 330.826 272.037 332.957 273.031 335.751C274.037 338.532 274.54 341.888 274.54 345.818C274.54 349.772 274.043 353.145 273.049 355.939C272.055 358.721 270.616 360.845 268.734 362.313C266.852 363.769 264.574 364.497 261.898 364.497ZM261.898 360.591C264.55 360.591 266.61 359.312 268.077 356.756C269.545 354.199 270.279 350.553 270.279 345.818C270.279 342.67 269.942 339.988 269.267 337.775C268.604 335.561 267.645 333.875 266.391 332.714C265.148 331.554 263.65 330.974 261.898 330.974C259.271 330.974 257.217 332.271 255.737 334.863C254.258 337.443 253.518 341.095 253.518 345.818C253.518 348.967 253.849 351.642 254.512 353.844C255.175 356.045 256.128 357.72 257.371 358.869C258.625 360.017 260.135 360.591 261.898 360.591ZM294.072 327.636V364H289.668V332.253H289.455L280.577 338.148V333.673L289.668 327.636H294.072ZM303.678 356.543V352.92L319.658 327.636H322.286V333.247H320.51L308.436 352.352V352.636H329.956V356.543H303.678ZM320.794 364V355.442V353.755V327.636H324.984V364H320.794Z" fill="black"/>
  <path d="M191.764 800V796.804L203.767 783.665C205.176 782.126 206.336 780.788 207.247 779.652C208.159 778.504 208.833 777.427 209.271 776.42C209.721 775.402 209.946 774.337 209.946 773.224C209.946 771.946 209.638 770.839 209.023 769.904C208.419 768.969 207.59 768.247 206.537 767.738C205.483 767.229 204.3 766.974 202.986 766.974C201.589 766.974 200.37 767.264 199.328 767.844C198.298 768.413 197.499 769.212 196.931 770.241C196.375 771.271 196.097 772.479 196.097 773.864H191.906C191.906 771.733 192.397 769.863 193.38 768.253C194.362 766.643 195.7 765.388 197.393 764.489C199.097 763.589 201.009 763.139 203.128 763.139C205.259 763.139 207.147 763.589 208.792 764.489C210.437 765.388 211.728 766.602 212.663 768.129C213.598 769.656 214.065 771.354 214.065 773.224C214.065 774.562 213.823 775.87 213.337 777.148C212.864 778.415 212.035 779.83 210.852 781.392C209.68 782.943 208.052 784.837 205.969 787.074L197.801 795.81V796.094H214.705V800H191.764ZM233.898 800.497C231.223 800.497 228.945 799.769 227.062 798.313C225.18 796.845 223.742 794.721 222.748 791.939C221.754 789.145 221.256 785.772 221.256 781.818C221.256 777.888 221.754 774.532 222.748 771.751C223.754 768.957 225.198 766.826 227.08 765.359C228.974 763.879 231.247 763.139 233.898 763.139C236.55 763.139 238.817 763.879 240.699 765.359C242.593 766.826 244.037 768.957 245.031 771.751C246.037 774.532 246.54 777.888 246.54 781.818C246.54 785.772 246.043 789.145 245.049 791.939C244.055 794.721 242.616 796.845 240.734 798.313C238.852 799.769 236.574 800.497 233.898 800.497ZM233.898 796.591C236.55 796.591 238.61 795.312 240.077 792.756C241.545 790.199 242.279 786.553 242.279 781.818C242.279 778.67 241.942 775.988 241.267 773.775C240.604 771.561 239.645 769.875 238.391 768.714C237.148 767.554 235.65 766.974 233.898 766.974C231.271 766.974 229.217 768.271 227.737 770.863C226.258 773.443 225.518 777.095 225.518 781.818C225.518 784.967 225.849 787.642 226.512 789.844C227.175 792.045 228.128 793.72 229.371 794.869C230.625 796.017 232.135 796.591 233.898 796.591ZM266.072 763.636V800H261.668V768.253H261.455L252.577 774.148V769.673L261.668 763.636H266.072ZM288.107 763.139C289.598 763.151 291.089 763.435 292.581 763.991C294.072 764.548 295.434 765.471 296.665 766.761C297.896 768.04 298.884 769.786 299.63 771.999C300.376 774.213 300.749 776.989 300.749 780.327C300.749 783.558 300.441 786.429 299.825 788.938C299.222 791.436 298.346 793.543 297.197 795.259C296.061 796.976 294.676 798.278 293.043 799.165C291.421 800.053 289.586 800.497 287.538 800.497C285.502 800.497 283.685 800.095 282.087 799.29C280.501 798.473 279.199 797.343 278.181 795.898C277.175 794.442 276.53 792.756 276.246 790.838H280.578C280.969 792.507 281.744 793.886 282.904 794.975C284.076 796.052 285.621 796.591 287.538 796.591C290.344 796.591 292.557 795.366 294.179 792.915C295.813 790.465 296.629 787.003 296.629 782.528H296.345C295.682 783.523 294.895 784.381 293.984 785.103C293.072 785.825 292.06 786.381 290.947 786.772C289.835 787.163 288.651 787.358 287.396 787.358C285.313 787.358 283.401 786.843 281.661 785.813C279.933 784.772 278.548 783.345 277.506 781.534C276.477 779.711 275.962 777.628 275.962 775.284C275.962 773.059 276.459 771.023 277.453 769.176C278.459 767.318 279.868 765.838 281.679 764.737C283.502 763.636 285.644 763.104 288.107 763.139ZM288.107 767.045C286.615 767.045 285.272 767.418 284.076 768.164C282.892 768.898 281.951 769.892 281.253 771.147C280.566 772.39 280.223 773.769 280.223 775.284C280.223 776.799 280.554 778.178 281.217 779.421C281.892 780.652 282.809 781.635 283.969 782.369C285.141 783.091 286.473 783.452 287.964 783.452C289.089 783.452 290.137 783.233 291.107 782.795C292.078 782.345 292.924 781.735 293.646 780.966C294.38 780.185 294.954 779.303 295.369 778.32C295.783 777.326 295.99 776.29 295.99 775.213C295.99 773.793 295.647 772.461 294.96 771.218C294.286 769.975 293.35 768.969 292.155 768.2C290.971 767.43 289.622 767.045 288.107 767.045Z" fill="black"/>
  <path d="M297.764 1109V1105.8L309.767 1092.66C311.176 1091.13 312.336 1089.79 313.247 1088.65C314.159 1087.5 314.833 1086.43 315.271 1085.42C315.721 1084.4 315.946 1083.34 315.946 1082.22C315.946 1080.95 315.638 1079.84 315.023 1078.9C314.419 1077.97 313.59 1077.25 312.537 1076.74C311.483 1076.23 310.3 1075.97 308.986 1075.97C307.589 1075.97 306.37 1076.26 305.328 1076.84C304.298 1077.41 303.499 1078.21 302.931 1079.24C302.375 1080.27 302.097 1081.48 302.097 1082.86H297.906C297.906 1080.73 298.397 1078.86 299.38 1077.25C300.362 1075.64 301.7 1074.39 303.393 1073.49C305.097 1072.59 307.009 1072.14 309.128 1072.14C311.259 1072.14 313.147 1072.59 314.792 1073.49C316.437 1074.39 317.728 1075.6 318.663 1077.13C319.598 1078.66 320.065 1080.35 320.065 1082.22C320.065 1083.56 319.823 1084.87 319.337 1086.15C318.864 1087.42 318.035 1088.83 316.852 1090.39C315.68 1091.94 314.052 1093.84 311.969 1096.07L303.801 1104.81V1105.09H320.705V1109H297.764ZM339.898 1109.5C337.223 1109.5 334.945 1108.77 333.062 1107.31C331.18 1105.85 329.742 1103.72 328.748 1100.94C327.754 1098.15 327.256 1094.77 327.256 1090.82C327.256 1086.89 327.754 1083.53 328.748 1080.75C329.754 1077.96 331.198 1075.83 333.08 1074.36C334.974 1072.88 337.247 1072.14 339.898 1072.14C342.55 1072.14 344.817 1072.88 346.699 1074.36C348.593 1075.83 350.037 1077.96 351.031 1080.75C352.037 1083.53 352.54 1086.89 352.54 1090.82C352.54 1094.77 352.043 1098.15 351.049 1100.94C350.055 1103.72 348.616 1105.85 346.734 1107.31C344.852 1108.77 342.574 1109.5 339.898 1109.5ZM339.898 1105.59C342.55 1105.59 344.61 1104.31 346.077 1101.76C347.545 1099.2 348.279 1095.55 348.279 1090.82C348.279 1087.67 347.942 1084.99 347.267 1082.77C346.604 1080.56 345.645 1078.87 344.391 1077.71C343.148 1076.55 341.65 1075.97 339.898 1075.97C337.271 1075.97 335.217 1077.27 333.737 1079.86C332.258 1082.44 331.518 1086.1 331.518 1090.82C331.518 1093.97 331.849 1096.64 332.512 1098.84C333.175 1101.05 334.128 1102.72 335.371 1103.87C336.625 1105.02 338.135 1105.59 339.898 1105.59ZM359.288 1109V1105.8L371.29 1092.66C372.699 1091.13 373.859 1089.79 374.771 1088.65C375.682 1087.5 376.357 1086.43 376.795 1085.42C377.245 1084.4 377.469 1083.34 377.469 1082.22C377.469 1080.95 377.162 1079.84 376.546 1078.9C375.942 1077.97 375.114 1077.25 374.06 1076.74C373.007 1076.23 371.823 1075.97 370.509 1075.97C369.112 1075.97 367.893 1076.26 366.852 1076.84C365.822 1077.41 365.023 1078.21 364.455 1079.24C363.898 1080.27 363.62 1081.48 363.62 1082.86H359.43C359.43 1080.73 359.921 1078.86 360.903 1077.25C361.886 1075.64 363.223 1074.39 364.916 1073.49C366.621 1072.59 368.532 1072.14 370.651 1072.14C372.782 1072.14 374.67 1072.59 376.315 1073.49C377.961 1074.39 379.251 1075.6 380.186 1077.13C381.121 1078.66 381.589 1080.35 381.589 1082.22C381.589 1083.56 381.346 1084.87 380.861 1086.15C380.387 1087.42 379.559 1088.83 378.375 1090.39C377.203 1091.94 375.576 1093.84 373.492 1096.07L365.325 1104.81V1105.09H382.228V1109H359.288ZM401.422 1109.5C398.747 1109.5 396.468 1108.77 394.586 1107.31C392.704 1105.85 391.266 1103.72 390.271 1100.94C389.277 1098.15 388.78 1094.77 388.78 1090.82C388.78 1086.89 389.277 1083.53 390.271 1080.75C391.277 1077.96 392.722 1075.83 394.604 1074.36C396.498 1072.88 398.77 1072.14 401.422 1072.14C404.073 1072.14 406.34 1072.88 408.222 1074.36C410.116 1075.83 411.56 1077.96 412.555 1080.75C413.561 1083.53 414.064 1086.89 414.064 1090.82C414.064 1094.77 413.567 1098.15 412.572 1100.94C411.578 1103.72 410.14 1105.85 408.258 1107.31C406.376 1108.77 404.097 1109.5 401.422 1109.5ZM401.422 1105.59C404.073 1105.59 406.133 1104.31 407.601 1101.76C409.069 1099.2 409.803 1095.55 409.803 1090.82C409.803 1087.67 409.465 1084.99 408.79 1082.77C408.128 1080.56 407.169 1078.87 405.914 1077.71C404.671 1076.55 403.174 1075.97 401.422 1075.97C398.794 1075.97 396.74 1077.27 395.261 1079.86C393.781 1082.44 393.041 1086.1 393.041 1090.82C393.041 1093.97 393.373 1096.64 394.036 1098.84C394.698 1101.05 395.651 1102.72 396.894 1103.87C398.149 1105.02 399.658 1105.59 401.422 1105.59Z" fill="black"/>
  <path d="M67.7642 1719V1715.8L79.767 1702.66C81.1757 1701.13 82.3357 1699.79 83.2472 1698.65C84.1586 1697.5 84.8333 1696.43 85.2713 1695.42C85.7211 1694.4 85.946 1693.34 85.946 1692.22C85.946 1690.95 85.6383 1689.84 85.0227 1688.9C84.419 1687.97 83.5904 1687.25 82.5369 1686.74C81.4834 1686.23 80.2997 1685.97 78.9858 1685.97C77.589 1685.97 76.3698 1686.26 75.3281 1686.84C74.2983 1687.41 73.4993 1688.21 72.9311 1689.24C72.3748 1690.27 72.0966 1691.48 72.0966 1692.86H67.9062C67.9062 1690.73 68.3975 1688.86 69.38 1687.25C70.3625 1685.64 71.7 1684.39 73.3928 1683.49C75.0973 1682.59 77.009 1682.14 79.1278 1682.14C81.2585 1682.14 83.1465 1682.59 84.7919 1683.49C86.4373 1684.39 87.7275 1685.6 88.6626 1687.13C89.5978 1688.66 90.0653 1690.35 90.0653 1692.22C90.0653 1693.56 89.8227 1694.87 89.3374 1696.15C88.8639 1697.42 88.0353 1698.83 86.8516 1700.39C85.6797 1701.94 84.0521 1703.84 81.9688 1706.07L73.8011 1714.81V1715.09H90.7045V1719H67.7642ZM109.898 1719.5C107.223 1719.5 104.945 1718.77 103.062 1717.31C101.18 1715.85 99.7422 1713.72 98.7479 1710.94C97.7536 1708.15 97.2564 1704.77 97.2564 1700.82C97.2564 1696.89 97.7536 1693.53 98.7479 1690.75C99.754 1687.96 101.198 1685.83 103.08 1684.36C104.974 1682.88 107.247 1682.14 109.898 1682.14C112.55 1682.14 114.817 1682.88 116.699 1684.36C118.593 1685.83 120.037 1687.96 121.031 1690.75C122.037 1693.53 122.54 1696.89 122.54 1700.82C122.54 1704.77 122.043 1708.15 121.049 1710.94C120.055 1713.72 118.616 1715.85 116.734 1717.31C114.852 1718.77 112.574 1719.5 109.898 1719.5ZM109.898 1715.59C112.55 1715.59 114.61 1714.31 116.077 1711.76C117.545 1709.2 118.279 1705.55 118.279 1700.82C118.279 1697.67 117.942 1694.99 117.267 1692.77C116.604 1690.56 115.645 1688.87 114.391 1687.71C113.148 1686.55 111.65 1685.97 109.898 1685.97C107.271 1685.97 105.217 1687.27 103.737 1689.86C102.258 1692.44 101.518 1696.1 101.518 1700.82C101.518 1703.97 101.849 1706.64 102.512 1708.84C103.175 1711.05 104.128 1712.72 105.371 1713.87C106.625 1715.02 108.135 1715.59 109.898 1715.59ZM129.288 1719V1715.8L141.29 1702.66C142.699 1701.13 143.859 1699.79 144.771 1698.65C145.682 1697.5 146.357 1696.43 146.795 1695.42C147.245 1694.4 147.469 1693.34 147.469 1692.22C147.469 1690.95 147.162 1689.84 146.546 1688.9C145.942 1687.97 145.114 1687.25 144.06 1686.74C143.007 1686.23 141.823 1685.97 140.509 1685.97C139.112 1685.97 137.893 1686.26 136.852 1686.84C135.822 1687.41 135.023 1688.21 134.455 1689.24C133.898 1690.27 133.62 1691.48 133.62 1692.86H129.43C129.43 1690.73 129.921 1688.86 130.903 1687.25C131.886 1685.64 133.223 1684.39 134.916 1683.49C136.621 1682.59 138.532 1682.14 140.651 1682.14C142.782 1682.14 144.67 1682.59 146.315 1683.49C147.961 1684.39 149.251 1685.6 150.186 1687.13C151.121 1688.66 151.589 1690.35 151.589 1692.22C151.589 1693.56 151.346 1694.87 150.861 1696.15C150.387 1697.42 149.559 1698.83 148.375 1700.39C147.203 1701.94 145.576 1703.84 143.492 1706.07L135.325 1714.81V1715.09H152.228V1719H129.288ZM172.345 1682.64V1719H167.942V1687.25H167.729L158.851 1693.15V1688.67L167.942 1682.64H172.345Z" fill="black"/>
</svg>
