<svg width="16" height="16" viewBox="0 0 16 16" fill="none"
  xmlns="http://www.w3.org/2000/svg">
  <style>
    path {
      fill: #E7472B;
    }
    @media (prefers-color-scheme: light) {
      path {
        fill: #1A1E40;
      }
    }
  </style>
  <g clip-path="url(#clip0_607_213)">
    <path d="M3.16 6.752C3.16 6.57067 3.224 6.416 3.352 6.288C3.49067 6.14933 3.65067 6.08 3.832 6.08H4.76V3.472C4.76 3.29067 4.824 3.136 4.952 3.008C5.08 2.86933 5.23467 2.8 5.416 2.8C5.59733 2.8 5.752 2.86933 5.88 3.008C6.01867 3.136 6.088 3.29067 6.088 3.472V6.08H9.528C9.70933 6.08 9.864 6.14933 9.992 6.288C10.1307 6.416 10.2 6.57067 10.2 6.752C10.2 6.93333 10.1307 7.09333 9.992 7.232C9.864 7.36 9.70933 7.424 9.528 7.424H6.088V11.28C6.088 11.664 6.22133 11.9947 6.488 12.272C6.76533 12.5387 7.096 12.672 7.48 12.672C7.864 12.672 8.18933 12.5387 8.456 12.272C8.72267 11.9947 8.856 11.664 8.856 11.28C8.856 11.0987 8.92 10.944 9.048 10.816C9.18667 10.6773 9.34667 10.608 9.528 10.608C9.70933 10.608 9.864 10.6773 9.992 10.816C10.1307 10.944 10.2 11.0987 10.2 11.28C10.2 11.6533 10.1253 12.0053 9.976 12.336C9.83733 12.6667 9.64533 12.9547 9.4 13.2C9.15467 13.4453 8.86667 13.6427 8.536 13.792C8.20533 13.9307 7.85333 14 7.48 14C7.10667 14 6.75467 13.9307 6.424 13.792C6.09333 13.6427 5.80533 13.4453 5.56 13.2C5.31467 12.9547 5.11733 12.6667 4.968 12.336C4.82933 12.0053 4.76 11.6533 4.76 11.28V7.424H3.832C3.65067 7.424 3.49067 7.36 3.352 7.232C3.224 7.09333 3.16 6.93333 3.16 6.752ZM11.9191 13.328C11.7378 13.328 11.5778 13.264 11.4391 13.136C11.3111 13.008 11.2471 12.8533 11.2471 12.672C11.2471 12.4907 11.3111 12.336 11.4391 12.208C11.5778 12.0693 11.7378 12 11.9191 12C12.1005 12 12.2551 12.0693 12.3831 12.208C12.5111 12.336 12.5751 12.4907 12.5751 12.672C12.5751 12.8533 12.5111 13.008 12.3831 13.136C12.2551 13.264 12.1005 13.328 11.9191 13.328Z"/>
  </g>
  <defs>
    <clipPath id="clip0_607_213">
      <rect width="16" height="16" fill="white"/>
    </clipPath>
  </defs>
</svg>
