<svg width="16" height="16" viewBox="0 0 16 16" fill="none" xmlns="http://www.w3.org/2000/svg">
<path d="M2.11 6.017C2.11 5.89233 2.154 5.786 2.242 5.698C2.33733 5.60267 2.44733 5.555 2.572 5.555H3.21V3.762C3.21 3.63733 3.254 3.531 3.342 3.443C3.43 3.34767 3.53633 3.3 3.661 3.3C3.78567 3.3 3.892 3.34767 3.98 3.443C4.07533 3.531 4.123 3.63733 4.123 3.762V5.555H6.488C6.61267 5.555 6.719 5.60267 6.807 5.698C6.90233 5.786 6.95 5.89233 6.95 6.017C6.95 6.14167 6.90233 6.25167 6.807 6.347C6.719 6.435 6.61267 6.479 6.488 6.479H4.123V9.13C4.123 9.394 4.21467 9.62133 4.398 9.812C4.58867 9.99533 4.816 10.087 5.08 10.087C5.344 10.087 5.56767 9.99533 5.751 9.812C5.93433 9.62133 6.026 9.394 6.026 9.13C6.026 9.00533 6.07 8.899 6.158 8.811C6.25333 8.71567 6.36333 8.668 6.488 8.668C6.61267 8.668 6.719 8.71567 6.807 8.811C6.90233 8.899 6.95 9.00533 6.95 9.13C6.95 9.38667 6.89867 9.62867 6.796 9.856C6.70067 10.0833 6.56867 10.2813 6.4 10.45C6.23133 10.6187 6.03333 10.7543 5.806 10.857C5.57867 10.9523 5.33667 11 5.08 11C4.82333 11 4.58133 10.9523 4.354 10.857C4.12667 10.7543 3.92867 10.6187 3.76 10.45C3.59133 10.2813 3.45567 10.0833 3.353 9.856C3.25767 9.62867 3.21 9.38667 3.21 9.13V6.479H2.572C2.44733 6.479 2.33733 6.435 2.242 6.347C2.154 6.25167 2.11 6.14167 2.11 6.017ZM11.9599 6.248C11.8719 6.248 11.7949 6.281 11.7289 6.347C11.8829 6.53033 11.9966 6.73567 12.0699 6.963C12.1506 7.19033 12.1909 7.42133 12.1909 7.656C12.1909 7.942 12.1359 8.21333 12.0259 8.47C11.9159 8.72667 11.7656 8.95033 11.5749 9.141C11.3916 9.32433 11.1716 9.471 10.9149 9.581C10.6582 9.691 10.3869 9.746 10.1009 9.746C9.6609 9.746 9.26123 9.62133 8.9019 9.372C8.78457 9.45267 8.6929 9.54433 8.6269 9.647C8.5609 9.74233 8.5279 9.845 8.5279 9.955C8.54257 10.1383 8.6159 10.2923 8.7479 10.417C8.95323 10.3363 9.16223 10.2813 9.3749 10.252C9.58757 10.2153 9.80023 10.197 10.0129 10.197C10.3869 10.197 10.7352 10.2483 11.0579 10.351C11.3806 10.4463 11.6629 10.5783 11.9049 10.747C12.1469 10.9157 12.3339 11.1137 12.4659 11.341C12.6052 11.5757 12.6749 11.825 12.6749 12.089C12.6749 12.353 12.6052 12.6023 12.4659 12.837C12.3339 13.0717 12.1469 13.2733 11.9049 13.442C11.6629 13.6107 11.3806 13.7427 11.0579 13.838C10.7352 13.9407 10.3869 13.992 10.0129 13.992C9.6389 13.992 9.29057 13.9407 8.9679 13.838C8.64523 13.7427 8.3629 13.6107 8.1209 13.442C7.88623 13.2733 7.69923 13.0717 7.5599 12.837C7.4279 12.6023 7.3619 12.353 7.3619 12.089C7.3619 11.8617 7.41323 11.6453 7.5159 11.44C7.61857 11.242 7.76157 11.0587 7.9449 10.89C7.7249 10.6113 7.6149 10.2997 7.6149 9.955C7.6149 9.70567 7.67357 9.47467 7.7909 9.262C7.90823 9.042 8.07323 8.85133 8.2859 8.69C8.19057 8.536 8.1209 8.371 8.0769 8.195C8.0329 8.019 8.0109 7.83933 8.0109 7.656C8.0109 7.35533 8.0659 7.08033 8.1759 6.831C8.29323 6.57433 8.44723 6.35433 8.6379 6.171C8.8359 5.98033 9.06323 5.83367 9.3199 5.731C9.5839 5.621 9.86257 5.566 10.1559 5.566C10.4566 5.566 10.7462 5.63567 11.0249 5.775C11.0322 5.74567 11.0542 5.72 11.0909 5.698C11.3329 5.456 11.6226 5.335 11.9599 5.335C12.2972 5.335 12.5869 5.456 12.8289 5.698C12.9242 5.786 12.9719 5.89233 12.9719 6.017C12.9719 6.14167 12.9242 6.25167 12.8289 6.347C12.7409 6.435 12.6346 6.479 12.5099 6.479C12.3852 6.479 12.2789 6.435 12.1909 6.347C12.1249 6.281 12.0479 6.248 11.9599 6.248ZM10.0129 11.11C9.75623 11.11 9.52157 11.1393 9.3089 11.198C9.09623 11.2567 8.9129 11.3337 8.7589 11.429C8.6049 11.5243 8.4839 11.627 8.3959 11.737C8.31523 11.8543 8.2749 11.9717 8.2749 12.089C8.2749 12.2063 8.31523 12.3237 8.3959 12.441C8.4839 12.5583 8.6049 12.6647 8.7589 12.76C8.9129 12.8553 9.09623 12.9323 9.3089 12.991C9.52157 13.0497 9.75623 13.079 10.0129 13.079C10.2696 13.079 10.5042 13.0497 10.7169 12.991C10.9369 12.9323 11.1239 12.8553 11.2779 12.76C11.4319 12.6647 11.5492 12.5583 11.6299 12.441C11.7179 12.3237 11.7619 12.2063 11.7619 12.089C11.7619 11.9717 11.7179 11.8543 11.6299 11.737C11.5492 11.627 11.4319 11.5243 11.2779 11.429C11.1239 11.3337 10.9369 11.2567 10.7169 11.198C10.5042 11.1393 10.2696 11.11 10.0129 11.11ZM10.1009 8.833C10.2622 8.833 10.4126 8.80367 10.5519 8.745C10.6986 8.679 10.8232 8.59467 10.9259 8.492C11.0359 8.382 11.1202 8.25733 11.1789 8.118C11.2449 7.97133 11.2779 7.81733 11.2779 7.656C11.2779 7.49467 11.2449 7.34433 11.1789 7.205C11.1202 7.05833 11.0359 6.93367 10.9259 6.831C10.8232 6.721 10.6986 6.63667 10.5519 6.578C10.4126 6.512 10.2622 6.479 10.1009 6.479C9.93957 6.479 9.78557 6.512 9.6389 6.578C9.49957 6.63667 9.3749 6.721 9.2649 6.831C9.16223 6.93367 9.0779 7.05833 9.0119 7.205C8.95323 7.34433 8.9239 7.49467 8.9239 7.656C8.9239 7.81733 8.95323 7.97133 9.0119 8.118C9.0779 8.25733 9.16223 8.382 9.2649 8.492C9.3749 8.59467 9.49957 8.679 9.6389 8.745C9.78557 8.80367 9.93957 8.833 10.1009 8.833Z" fill="#F95738"/>
</svg>
