<svg width="16" height="16" viewBox="0 0 16 16" fill="none" xmlns="http://www.w3.org/2000/svg">
  <rect width="16" height="16" rx="8" fill="#F7F5F1" />
  <path
    d="M4.03703 6.376C4.03703 6.28533 4.06903 6.208 4.13303 6.144C4.20236 6.07467 4.28236 6.04 4.37303 6.04H4.83703V4.736C4.83703 4.64533 4.86903 4.568 4.93303 4.504C4.99703 4.43467 5.07436 4.4 5.16503 4.4C5.2557 4.4 5.33303 4.43467 5.39703 4.504C5.46636 4.568 5.50103 4.64533 5.50103 4.736V6.04H7.22103C7.3117 6.04 7.38903 6.07467 7.45303 6.144C7.52236 6.208 7.55703 6.28533 7.55703 6.376C7.55703 6.46667 7.52236 6.54667 7.45303 6.616C7.38903 6.68 7.3117 6.712 7.22103 6.712H5.50103V8.64C5.50103 8.832 5.5677 8.99733 5.70103 9.136C5.8397 9.26933 6.00503 9.336 6.19703 9.336C6.38903 9.336 6.5517 9.26933 6.68503 9.136C6.81836 8.99733 6.88503 8.832 6.88503 8.64C6.88503 8.54933 6.91703 8.472 6.98103 8.408C7.05036 8.33867 7.13036 8.304 7.22103 8.304C7.3117 8.304 7.38903 8.33867 7.45303 8.408C7.52236 8.472 7.55703 8.54933 7.55703 8.64C7.55703 8.82667 7.5197 9.00267 7.44503 9.168C7.3757 9.33333 7.2797 9.47733 7.15703 9.6C7.03436 9.72267 6.89036 9.82133 6.72503 9.896C6.5597 9.96533 6.3837 10 6.19703 10C6.01036 10 5.83436 9.96533 5.66903 9.896C5.5037 9.82133 5.3597 9.72267 5.23703 9.6C5.11436 9.47733 5.0157 9.33333 4.94103 9.168C4.8717 9.00267 4.83703 8.82667 4.83703 8.64V6.712H4.37303C4.28236 6.712 4.20236 6.68 4.13303 6.616C4.06903 6.54667 4.03703 6.46667 4.03703 6.376ZM11.2006 6.544C11.1366 6.544 11.0806 6.568 11.0326 6.616C11.1446 6.74933 11.2273 6.89867 11.2806 7.064C11.3393 7.22933 11.3686 7.39733 11.3686 7.568C11.3686 7.776 11.3286 7.97333 11.2486 8.16C11.1686 8.34667 11.0593 8.50933 10.9206 8.648C10.7873 8.78133 10.6273 8.888 10.4406 8.968C10.2539 9.048 10.0566 9.088 9.84859 9.088C9.52859 9.088 9.23793 8.99733 8.97659 8.816C8.89126 8.87467 8.82459 8.94133 8.77659 9.016C8.72859 9.08533 8.70459 9.16 8.70459 9.24C8.71526 9.37333 8.76859 9.48533 8.86459 9.576C9.01393 9.51733 9.16593 9.47733 9.32059 9.456C9.47526 9.42933 9.62993 9.416 9.78459 9.416C10.0566 9.416 10.3099 9.45333 10.5446 9.528C10.7793 9.59733 10.9846 9.69333 11.1606 9.816C11.3366 9.93867 11.4726 10.0827 11.5686 10.248C11.6699 10.4187 11.7206 10.6 11.7206 10.792C11.7206 10.984 11.6699 11.1653 11.5686 11.336C11.4726 11.5067 11.3366 11.6533 11.1606 11.776C10.9846 11.8987 10.7793 11.9947 10.5446 12.064C10.3099 12.1387 10.0566 12.176 9.78459 12.176C9.51259 12.176 9.25926 12.1387 9.02459 12.064C8.78993 11.9947 8.58459 11.8987 8.40859 11.776C8.23793 11.6533 8.10193 11.5067 8.00059 11.336C7.90459 11.1653 7.85659 10.984 7.85659 10.792C7.85659 10.6267 7.89393 10.4693 7.96859 10.32C8.04326 10.176 8.14726 10.0427 8.28059 9.92C8.12059 9.71733 8.04059 9.49067 8.04059 9.24C8.04059 9.05867 8.08326 8.89067 8.16859 8.736C8.25393 8.576 8.37393 8.43733 8.52859 8.32C8.45926 8.208 8.40859 8.088 8.37659 7.96C8.34459 7.832 8.32859 7.70133 8.32859 7.568C8.32859 7.34933 8.36859 7.14933 8.44859 6.968C8.53393 6.78133 8.64593 6.62133 8.78459 6.488C8.92859 6.34933 9.09393 6.24267 9.28059 6.168C9.47259 6.088 9.67526 6.048 9.88859 6.048C10.1073 6.048 10.3179 6.09867 10.5206 6.2C10.5259 6.17867 10.5419 6.16 10.5686 6.144C10.7446 5.968 10.9553 5.88 11.2006 5.88C11.4459 5.88 11.6566 5.968 11.8326 6.144C11.9019 6.208 11.9366 6.28533 11.9366 6.376C11.9366 6.46667 11.9019 6.54667 11.8326 6.616C11.7686 6.68 11.6913 6.712 11.6006 6.712C11.5099 6.712 11.4326 6.68 11.3686 6.616C11.3206 6.568 11.2646 6.544 11.2006 6.544ZM9.78459 10.08C9.59793 10.08 9.42726 10.1013 9.27259 10.144C9.11793 10.1867 8.98459 10.2427 8.87259 10.312C8.76059 10.3813 8.67259 10.456 8.60859 10.536C8.54993 10.6213 8.52059 10.7067 8.52059 10.792C8.52059 10.8773 8.54993 10.9627 8.60859 11.048C8.67259 11.1333 8.76059 11.2107 8.87259 11.28C8.98459 11.3493 9.11793 11.4053 9.27259 11.448C9.42726 11.4907 9.59793 11.512 9.78459 11.512C9.97126 11.512 10.1419 11.4907 10.2966 11.448C10.4566 11.4053 10.5926 11.3493 10.7046 11.28C10.8166 11.2107 10.9019 11.1333 10.9606 11.048C11.0246 10.9627 11.0566 10.8773 11.0566 10.792C11.0566 10.7067 11.0246 10.6213 10.9606 10.536C10.9019 10.456 10.8166 10.3813 10.7046 10.312C10.5926 10.2427 10.4566 10.1867 10.2966 10.144C10.1419 10.1013 9.97126 10.08 9.78459 10.08ZM9.84859 8.424C9.96593 8.424 10.0753 8.40267 10.1766 8.36C10.2833 8.312 10.3739 8.25067 10.4486 8.176C10.5286 8.096 10.5899 8.00533 10.6326 7.904C10.6806 7.79733 10.7046 7.68533 10.7046 7.568C10.7046 7.45067 10.6806 7.34133 10.6326 7.24C10.5899 7.13333 10.5286 7.04267 10.4486 6.968C10.3739 6.888 10.2833 6.82667 10.1766 6.784C10.0753 6.736 9.96593 6.712 9.84859 6.712C9.73126 6.712 9.61926 6.736 9.51259 6.784C9.41126 6.82667 9.32059 6.888 9.24059 6.968C9.16593 7.04267 9.10459 7.13333 9.05659 7.24C9.01393 7.34133 8.99259 7.45067 8.99259 7.568C8.99259 7.68533 9.01393 7.79733 9.05659 7.904C9.10459 8.00533 9.16593 8.096 9.24059 8.176C9.32059 8.25067 9.41126 8.312 9.51259 8.36C9.61926 8.40267 9.73126 8.424 9.84859 8.424Z"
    fill="#2F355C" />
</svg>