<svg width="8" height="12" viewBox="0 0 8 12" fill="none" xmlns="http://www.w3.org/2000/svg">
<path d="M0.16 4.752C0.16 4.57067 0.224 4.416 0.352 4.288C0.490667 4.14933 0.650667 4.08 0.832 4.08H1.76V1.472C1.76 1.29067 1.824 1.136 1.952 1.008C2.08 0.869333 2.23467 0.799999 2.416 0.799999C2.59733 0.799999 2.752 0.869333 2.88 1.008C3.01867 1.136 3.088 1.29067 3.088 1.472V4.08H6.528C6.70933 4.08 6.864 4.14933 6.992 4.288C7.13067 4.416 7.2 4.57067 7.2 4.752C7.2 4.93333 7.13067 5.09333 6.992 5.232C6.864 5.36 6.70933 5.424 6.528 5.424H3.088V9.28C3.088 9.664 3.22133 9.99467 3.488 10.272C3.76533 10.5387 4.096 10.672 4.48 10.672C4.864 10.672 5.18933 10.5387 5.456 10.272C5.72267 9.99467 5.856 9.664 5.856 9.28C5.856 9.09867 5.92 8.944 6.048 8.816C6.18667 8.67733 6.34667 8.608 6.528 8.608C6.70933 8.608 6.864 8.67733 6.992 8.816C7.13067 8.944 7.2 9.09867 7.2 9.28C7.2 9.65333 7.12533 10.0053 6.976 10.336C6.83733 10.6667 6.64533 10.9547 6.4 11.2C6.15467 11.4453 5.86667 11.6427 5.536 11.792C5.20533 11.9307 4.85333 12 4.48 12C4.10667 12 3.75467 11.9307 3.424 11.792C3.09333 11.6427 2.80533 11.4453 2.56 11.2C2.31467 10.9547 2.11733 10.6667 1.968 10.336C1.82933 10.0053 1.76 9.65333 1.76 9.28V5.424H0.832C0.650667 5.424 0.490667 5.36 0.352 5.232C0.224 5.09333 0.16 4.93333 0.16 4.752Z" fill="#F95738"/>
</svg>
