<svg width="57" height="59" viewBox="0 0 57 59" fill="none"
  xmlns="http://www.w3.org/2000/svg">
  <path d="M6.93418 47.7612C7.50157 48.4317 8.10015 49.0747 8.72791 49.6881C10.8439 51.7858 13.3672 53.549 16.0742 54.8826C17.0716 55.353 17.9916 55.8403 19.0695 56.2598C19.3388 56.364 19.6139 56.4756 19.9031 56.5761C20.1948 56.6692 20.4972 56.7623 20.8133 56.8545C21.1276 56.9534 21.4627 57.0237 21.8132 57.0968C22.1639 57.1677 22.5281 57.2487 22.9192 57.2891C20.9789 56.8771 19.0877 56.2582 17.2776 55.4427C15.4562 54.6151 13.7255 53.5983 12.1137 52.4088C8.88552 50.0269 6.12438 46.9687 4.10754 43.4728C4.0243 43.3683 3.8979 43.1691 3.74641 42.9155L3.5028 42.4999L3.25704 42.0218C3.09362 41.6901 2.9054 41.3535 2.76125 41.0274C2.632 40.7421 2.49669 40.4597 2.35544 40.1803C2.98222 41.7527 3.70571 43.1281 4.51581 44.4361C4.88895 45.0359 5.28392 45.6217 5.6999 46.1922C5.64114 46.1124 5.57993 46.0347 5.52147 45.9545C5.96724 46.573 6.43687 47.1736 6.92928 47.7551L6.93418 47.7612ZM0.408684 32.6881L0.260864 31.4937C0.339212 32.2227 0.430107 33.0374 0.59629 33.853L0.496213 33.2738C0.459274 33.0799 0.430074 32.8845 0.408684 32.6881ZM26.2624 57.2046C28.2983 57.4121 30.4332 57.3501 32.5244 57.0169C34.6169 56.6849 36.6634 56.0962 38.5661 55.3372C35.0619 56.7253 31.3428 57.3427 27.7045 57.2395C27.2176 57.2318 26.7377 57.2395 26.2624 57.2046Z" fill="#1A1E40"/>
  <path d="M14.2085 53.0098L14.1293 52.959C14.1559 52.9759 14.1819 52.9932 14.2085 53.0098ZM17.1622 54.6488C18.8397 55.435 20.5967 56.0361 22.4026 56.4416C19.4376 55.7604 16.6474 54.5585 14.2085 53.0098C15.145 53.61 16.1296 54.1655 17.1622 54.6488ZM54.1707 33.0123C54.2007 32.5253 54.2613 32.0142 54.2766 31.771C54.4584 30.2078 54.5122 28.8731 54.5046 27.534C54.4709 27.2927 54.3745 26.8404 54.3362 26.3263C54.2894 25.8109 54.2206 25.3063 54.1624 24.8084C54.074 24.3149 53.9978 23.8263 53.901 23.3473C54.5973 26.9283 54.5857 30.5232 53.9451 33.9149C54.0155 33.6129 54.0907 33.312 54.1707 33.0123Z" fill="#1A1E40"/>
  <path d="M0.271569 25.7339C0.531095 23.6069 1.08351 21.5336 1.60899 20.1523L1.39628 21.1634C1.52758 20.8671 1.73967 20.1788 2.02888 19.4504L2.2376 18.8949L2.46805 18.3564C2.62108 18.0077 2.74962 17.6773 2.88519 17.4239C2.79246 17.6616 2.7031 17.9177 2.59537 18.1748C2.48978 18.4328 2.37134 18.6948 2.25841 18.9584L2.72176 17.9076C2.25425 19.0872 1.8518 20.2919 1.51625 21.5163C1.1695 22.8578 0.895288 24.2678 0.747775 25.5335C0.704928 25.8491 0.689932 26.1574 0.662082 26.4515C0.641577 26.7456 0.606076 27.0261 0.603321 27.2912C0.590467 27.8211 0.572717 28.285 0.581592 28.6561C0.613727 29.3987 0.658103 29.7689 0.722067 29.5621C0.847851 29.1512 0.845403 27.0381 1.28427 24.3936C1.51901 23.0755 1.85596 21.6297 2.31319 20.2133C2.76706 18.7956 3.36201 17.4211 3.97808 16.2085L3.7969 16.6067L3.63011 17.017L3.28856 17.8465L2.97517 18.7035L2.81572 19.1356C2.7689 19.2824 2.72146 19.4297 2.67463 19.5777C2.27065 20.7512 1.96859 21.987 1.70539 23.2327L1.53431 24.1735C1.47157 24.486 1.44494 24.8042 1.39843 25.1189C1.3011 25.748 1.2656 26.3818 1.21143 27.0082C1.15053 28.264 1.13829 29.5044 1.25122 30.6906C1.24663 30.4089 1.24204 30.1586 1.24602 29.9163L1.28121 29.1903C1.2959 28.941 1.29315 28.6765 1.31641 28.3735C1.33783 28.0704 1.35742 27.7289 1.37455 27.3248C1.49422 25.2878 1.85566 23.2712 2.41756 21.3196C2.95313 19.3598 3.58481 17.6338 4.5259 16.07L4.77104 15.5996C4.93692 15.284 5.07494 14.9727 5.25031 14.6551C5.45016 14.3068 5.64143 14.046 5.79629 13.8071C5.95574 13.5707 6.09101 13.3629 6.24587 13.1613L7.37273 11.5948C7.39568 11.592 7.366 11.6518 7.31152 11.7406C7.49731 11.4739 7.69746 11.2177 7.91106 10.973C8.14213 10.7033 8.36646 10.4172 8.55651 10.1811C8.6012 10.179 8.64465 10.1777 8.74718 10.1038C11.3945 7.26872 14.6523 4.95835 18.3236 3.50184L19.1399 3.18156L19.9662 2.90444L20.3772 2.76634L20.7934 2.6492L21.6228 2.41709C22.0972 2.30211 22.5777 2.18559 23.0676 2.08078L23.8135 1.94946C24.0641 1.906 24.316 1.85699 24.5737 1.83294C25.086 1.77098 25.5328 1.64028 25.7737 1.60822C27.1108 1.53147 28.4455 1.54688 30.0121 1.67481C30.1336 1.67696 30.3227 1.68806 30.5422 1.70008C30.7616 1.71272 31.0126 1.71889 31.2559 1.74139C31.5411 1.80612 31.8456 1.87024 32.1651 1.93282C34.1143 2.23737 35.999 2.78175 37.7921 3.50585L37.7899 3.49721L38.4767 3.7728L39.1775 4.09893C39.6583 4.30978 40.1293 4.5795 40.616 4.8335C40.8602 4.95896 41.0915 5.11217 41.3315 5.25088C41.5671 5.397 41.8138 5.52646 42.0415 5.68614C42.503 5.99501 42.971 6.29063 43.4022 6.62077C44.0975 7.12611 44.7714 7.66069 45.4221 8.22308C45.4362 8.23603 45.4509 8.24805 45.4649 8.26069L45.4778 8.27241L45.9237 8.67992L46.3503 9.1087L46.7772 9.5378C46.9186 9.68175 47.0496 9.83588 47.1864 9.98446C47.1203 9.87657 47.1228 9.8331 47.1252 9.79026C46.9144 9.58681 46.6649 9.34606 46.4186 9.10901C46.8296 9.4857 47.1883 9.82632 47.4827 10.1044C47.5962 10.2505 47.7202 10.3941 47.8377 10.551L48.2007 11.0338L48.5866 11.5359L48.9707 12.076C49.6519 12.9508 50.2533 13.8867 50.8244 14.841C51.0888 15.3305 51.3805 15.8062 51.6158 16.3126L51.9871 17.0636L52.3213 17.8333C52.4174 17.9976 52.38 17.84 52.392 17.8123C52.7669 18.7254 53.0683 19.6748 53.3413 20.6316C53.8632 22.3608 54.2125 24.138 54.3843 25.937C54.4532 26.3618 54.4825 26.7915 54.5434 27.2172L54.5058 28.1185C54.5055 28.4585 54.5232 28.7985 54.5089 29.1392L54.4697 30.1644C54.4648 30.3956 54.4317 30.6481 54.4125 30.9224C54.3868 31.1962 54.3733 31.4915 54.3341 31.8028L54.208 32.7868C54.1676 33.1317 54.0896 33.4862 54.0296 33.8567C53.7309 35.4837 53.2893 37.0808 52.7099 38.6291C52.6359 38.8837 52.5792 39.0872 52.5288 39.2009C52.3369 39.6636 52.1321 40.1115 51.9344 40.5526C51.7131 40.9823 51.5102 41.4121 51.2835 41.819C50.5821 43.1585 49.7682 44.4351 48.8507 45.6349C48.7479 45.7702 48.6521 45.9077 48.5486 46.0347L48.2432 46.4064C48.0412 46.6465 47.8606 46.8867 47.6691 47.0951C47.2862 47.5118 46.9649 47.8984 46.6634 48.1891C46.3182 48.5522 46.3491 48.5691 46.5881 48.394C46.7559 48.2692 46.92 48.1395 47.0802 48.005L47.7297 47.415C47.9672 47.2063 48.1945 46.9708 48.4137 46.7489C48.6303 46.5254 48.847 46.3216 49.0141 46.1373C49.3511 45.7702 49.5724 45.5436 49.5252 45.6444C48.9814 46.6755 47.991 47.9474 46.5434 49.3543C45.8049 50.0408 44.974 50.7867 43.9913 51.5059C43.5121 51.8823 42.9792 52.2266 42.436 52.6027C41.8747 52.9488 41.3012 53.328 40.6741 53.6646C39.3018 54.4174 41.7039 53.2099 41.7688 53.1985C41.5372 53.3823 41.2942 53.5512 41.0414 53.7041C40.589 53.9464 40.1407 54.1963 39.6721 54.4047C39.3982 54.5314 39.1292 54.6683 38.8522 54.7867L38.017 55.1325L38.4589 54.9574C39.3624 54.5958 40.2068 54.1698 40.9691 53.7485C40.6827 53.9229 40.3693 54.1248 40.0259 54.307C39.6577 54.4987 39.2767 54.7084 38.8944 54.8955L37.785 55.4152C41.7538 53.963 45.401 51.5598 48.2882 48.427C49.7336 46.8654 51.0227 45.15 52.0737 43.2943C53.1311 41.4423 53.9818 39.4782 54.6102 37.4377C53.6449 40.4987 52.1401 43.3106 50.3313 45.6882C53.6195 41.2163 55.58 35.7337 55.8399 30.0793C55.8395 30.391 55.8089 30.7014 55.7884 31.0118C55.763 31.3222 55.7508 31.6339 55.7147 31.9434C55.636 32.5614 55.5797 33.1829 55.4616 33.7957C55.2706 35.0287 54.9609 36.2405 54.6102 37.4377C55.3024 35.2735 55.7159 32.9914 55.8787 30.6965C56.0483 28.3997 55.9069 26.089 55.5552 23.8498C56.1594 26.8158 56.2594 30.1764 55.7447 33.4976C56.1064 31.3555 56.1982 29.1475 56.0593 26.9583C56.0281 26.122 55.9301 25.2915 55.8496 24.5227C55.7343 23.7595 55.647 23.0548 55.5353 22.4848C55.9776 24.589 56.152 26.3837 56.2371 28.0754C56.1554 24.3834 55.3961 20.6427 53.905 17.1289C54.7188 19.0373 55.3869 21.0903 55.7949 23.2009C56.205 25.3094 56.3754 27.4666 56.2784 29.5417C56.2738 29.2988 56.2839 29.0562 56.2698 28.8124L56.2371 28.0754C56.3249 31.4199 55.8135 34.7349 54.7999 37.8523C54.2913 39.4109 53.663 40.9253 52.9024 42.3664C52.1434 43.8053 51.2672 45.1783 50.2827 46.4711C51.4068 45.1487 52.5936 43.2795 53.5408 41.2262C54.4838 39.1686 55.1837 36.9433 55.6651 34.9997C54.9569 38.4898 53.5512 41.9336 51.5118 45.0091C49.4778 48.087 46.8137 50.7932 43.7312 52.8702C40.6524 54.9537 37.1592 56.3957 33.5745 57.1081C31.7945 57.4642 29.9853 57.6509 28.1706 57.6658C26.389 57.6753 24.6104 57.519 22.8574 57.1988L23.7771 57.3748C24.0837 57.4333 24.3946 57.4657 24.7031 57.5119C25.3201 57.6118 25.9442 57.6494 26.566 57.7071C27.8126 57.7777 29.0658 57.8014 30.3151 57.7055C31.5665 57.6386 32.81 57.4506 34.0476 57.221C34.6615 57.0804 35.2828 56.9654 35.8891 56.7851C36.1933 56.6994 36.5012 56.6245 36.8032 56.5292L37.7076 56.2339C37.251 56.3763 36.7705 56.565 36.2573 56.7034L35.6143 56.8939C36.9636 56.5315 38.2843 56.0682 39.5653 55.508C40.1513 55.2505 40.7281 54.9723 41.2948 54.6741C40.2331 55.2414 39.1381 55.7429 38.0158 56.176C35.8758 56.9804 33.6518 57.537 31.3869 57.835C31.0471 57.8892 30.7374 57.9062 30.4598 57.9355L29.7168 58.0095C29.2794 58.0443 28.9566 58.06 28.7307 58.085C28.2787 58.1303 28.2144 58.1725 28.3944 58.2074C28.574 58.2422 28.9976 58.2699 29.5185 58.2847C30.0378 58.2817 30.6539 58.2536 31.2142 58.2021C36.8446 57.6205 42.014 55.3948 46.1566 52.0629C50.302 48.7304 53.4769 44.3035 55.2464 39.2805C55.3575 38.9889 55.4429 38.688 55.5353 38.3896C55.625 38.0903 55.7242 37.7941 55.8053 37.492C55.9555 36.8847 56.1334 36.2845 56.2484 35.668L56.4379 34.7479L56.5869 33.8194L56.6607 33.3549L56.7133 32.8872L56.818 31.952C57.0316 29.4508 56.9471 26.9228 56.5695 24.442C56.3675 23.0382 56.0125 21.3714 55.5549 19.8869L55.203 18.8129C55.0806 18.4717 54.9505 18.1498 54.8348 17.8471L54.6643 17.411L54.4896 17.0192L54.1894 16.3644C53.2302 14.4042 52.025 12.5347 50.6141 10.7958C49.2048 9.0563 47.5855 7.44566 45.76 6.0431L45.0732 5.51814L44.361 5.02246L44.0042 4.77401L43.636 4.54097L42.8963 4.07612C41.8879 3.4892 40.855 2.92355 39.7661 2.45439C38.6885 1.96179 37.5607 1.56199 36.4127 1.20441C35.8328 1.04412 35.2556 0.865327 34.6609 0.742333C34.3647 0.677908 34.0709 0.599611 33.7713 0.545666L32.8703 0.385065C30.7157 0.0031358 28.4745 -0.0877997 26.2355 0.081741C23.9977 0.255906 21.7504 0.683764 19.5956 1.42235L18.7891 1.70378C18.5195 1.79533 18.2597 1.91401 17.9943 2.0179C17.7317 2.12856 17.4633 2.22535 17.2057 2.34742L16.4307 2.709C16.17 2.82491 15.9181 2.95808 15.6669 3.09278L14.9112 3.49259L14.1761 3.92785C13.9313 4.07334 13.6846 4.21545 13.4502 4.37729L12.7389 4.8483C12.4996 5.0015 12.278 5.1806 12.047 5.34521C11.8202 5.51598 11.5848 5.67504 11.3657 5.85506L10.7056 6.3905C10.4825 6.56467 10.2719 6.75363 10.0619 6.9429L9.43058 7.50701L8.82736 8.09855C8.6266 8.29552 8.42369 8.49034 8.2367 8.69996C6.69698 10.3331 5.34426 12.1148 4.23791 14.0001C3.153 15.8496 2.26396 17.8087 1.58542 19.8453C0.246473 23.8279 -0.137614 27.867 0.0411167 31.5152C0.00255505 30.0134 -0.00387189 27.8596 0.271569 25.7339ZM43.4643 53.6144C44.3943 53.0089 45.2899 52.3514 46.1468 51.6449C45.2776 52.3659 44.3846 53.0318 43.4643 53.6144ZM55.7725 36.8816C55.681 37.1594 55.6036 37.4337 55.5026 37.6957L55.2097 38.4735L55.0671 38.8582L54.9101 39.2376C54.8052 39.4933 54.7035 39.7503 54.605 40.0086C54.0383 41.4301 53.3644 42.8059 52.589 44.1238C51.8175 45.4416 50.9232 46.6764 49.9678 47.8352C49.4958 48.4206 48.9817 48.9634 48.4761 49.5062L47.6862 50.284C47.427 50.5454 47.1433 50.7784 46.8746 51.025C46.6493 51.2223 46.4222 51.4153 46.1936 51.6051C47.0427 50.9027 47.8496 50.15 48.6101 49.3512C47.5098 50.4999 46.3129 51.5507 45.0328 52.4917C44.7157 52.7143 44.4094 52.9528 44.0801 53.1625L43.0863 53.8002L42.0366 54.401C41.6795 54.6008 41.3024 54.7783 40.9244 54.9728C41.1951 54.8122 41.4691 54.6572 41.7462 54.508C42.0586 54.3332 42.3864 54.1267 42.7065 53.9377C43.0291 53.7525 43.3223 53.549 43.5659 53.3789C43.8095 53.2087 44.0005 53.0675 44.1 52.9763C43.958 53.0734 43.8135 53.1665 43.6697 53.2611C43.8244 53.1583 43.9782 53.054 44.1309 52.9482C44.1245 52.9553 44.111 52.9664 44.1 52.9763C47.4456 50.6748 50.2958 47.6505 52.4314 44.2027C54.5765 40.7579 55.9724 36.8721 56.5508 32.9202C56.4253 34.5053 56.137 35.771 55.7725 36.8816ZM51.1506 12.8223C52.0717 14.2234 52.8677 15.7038 53.5295 17.2463C53.606 17.4156 53.6783 17.5873 53.7496 17.7593C55.2685 21.5058 55.9595 25.5249 55.8582 29.4841C55.8839 28.174 55.7976 26.8645 55.6535 25.5662C55.4903 24.0699 55.1889 22.5915 54.7892 21.1455C54.0051 18.2457 52.7317 15.4973 51.1151 12.9918C51.2636 13.1983 51.42 13.4221 51.5818 13.6595C51.7552 13.9051 51.9176 14.1585 52.0685 14.4187L51.8732 14.0769L51.6623 13.7443L51.2406 13.0797C50.9535 12.6407 50.6423 12.2178 50.3427 11.7874C50.0177 11.3762 49.7095 10.9515 49.3713 10.551C49.1154 10.2573 48.8703 9.95363 48.6108 9.66356C49.5265 10.6361 50.3861 11.6796 51.1506 12.8223ZM29.6516 0.355164C30.1006 0.379208 30.5504 0.423288 31.0003 0.457197C31.3688 0.48833 31.7354 0.5432 32.0984 0.584506C32.2074 0.58913 32.3224 0.596528 32.4669 0.612866C32.611 0.632902 32.7833 0.670201 33.0083 0.721988C34.682 1.00312 36.2092 1.42574 37.2932 1.86223C39.3737 2.65537 41.3094 3.6421 43.0652 4.78172C44.8216 5.91918 46.3978 7.21293 47.7312 8.62597C48.3457 9.29766 48.1664 9.15124 47.8276 8.82511L48.3362 9.36887C48.111 9.14261 47.8897 8.91327 47.6611 8.69194L46.9569 8.04769C47.1283 8.19873 47.5439 8.56032 47.8276 8.82511C45.5662 6.50117 42.9229 4.57149 40.0617 3.15197C37.1983 1.73307 34.1149 0.856696 31.0328 0.506826C31.5279 0.562312 31.7709 0.574642 32.0023 0.580807C31.6703 0.541659 31.3373 0.488022 31.0003 0.457197C30.5477 0.427296 30.096 0.386606 29.6467 0.364412L28.3123 0.332661C28.7543 0.332353 29.202 0.344683 29.6516 0.355164Z" fill="#1A1E40"/>
  <path d="M35.4835 56.9318L35.6139 56.8933C35.4774 56.9303 35.343 56.971 35.2056 57.0061C35.2987 56.9827 35.392 56.9599 35.4835 56.9318ZM49.097 45.0519C50.3931 43.3297 51.5383 41.2718 52.2695 39.499L52.2606 39.5009C50.4056 43.9157 47.3969 47.719 43.6424 50.5192C44.309 50.0525 44.9639 49.5691 45.6066 49.0694C46.4323 48.2002 47.8141 46.7865 49.097 45.0519ZM10.8187 50.1983C13.0137 52.1748 15.6607 53.8949 18.607 55.0536C19.7559 55.4892 20.9283 55.8708 22.1274 56.1396C22.7223 56.2943 23.3298 56.3899 23.9328 56.5036C24.2348 56.5576 24.5409 56.5875 24.8445 56.6306C25.1487 56.6704 25.4523 56.7154 25.7586 56.7333C24.3756 56.5789 23.0027 56.3477 21.6662 55.9812C20.3306 55.6159 19.0213 55.1643 17.7583 54.6097C16.5018 54.0463 15.2855 53.396 14.1182 52.6634C12.9595 51.9211 11.8608 51.0922 10.8187 50.1983ZM37.912 53.7219L37.2329 53.9904L36.5394 54.2235C36.0803 54.3899 35.6068 54.5145 35.1346 54.6467C35.6093 54.5265 36.0867 54.4143 36.5498 54.2602L37.2485 54.045L37.9309 53.7938C37.9046 53.7802 37.7492 53.8107 37.912 53.7219ZM29.8954 55.4753C29.5404 55.5058 29.1836 55.503 28.8261 55.5067C28.4686 55.5111 28.1106 55.5188 27.7522 55.495L28.2345 55.5407C28.382 55.5502 28.5149 55.5616 28.6309 55.5755C29.0535 55.5391 29.4731 55.5289 29.8954 55.4753ZM15.7433 52.1597C16.1537 52.4023 16.5895 52.6159 17.022 52.8514C17.1303 52.9112 17.3268 52.9794 17.5731 53.07C17.0464 52.8422 16.5418 52.5598 16.0288 52.2978C15.7748 52.1619 15.5303 52.0096 15.2812 51.8678C15.0327 51.7248 14.7851 51.582 14.55 51.4224L14.8368 51.6153L15.1358 51.7953L15.7433 52.1597Z" fill="#1A1E40"/>
  <path d="M25.969 14.2415C25.8629 14.6333 25.7568 15.1321 25.6507 15.702C28.9399 15.4883 32.2999 15.3814 35.3416 15.2746C42.7689 14.9896 45.3861 15.1321 46.0581 14.8827C46.7301 14.669 46.6947 14.954 46.4471 15.2033C46.3057 15.3814 45.7044 15.8445 45.1385 15.8445C44.608 15.8802 39.6211 15.8802 35.1647 16.0583C31.4864 16.2008 28.268 16.3433 25.4739 16.557C25.0141 18.7657 24.4128 22.043 23.8469 26.5316C22.9981 33.0151 21.3358 42.9184 21.1943 44.094C21.0882 45.2696 20.2748 46.5164 20.2748 45.5902C20.2748 44.664 20.9114 39.6411 22.9274 26.6741C23.6701 21.8293 24.2714 18.6588 24.7311 16.5926C22.4676 16.7708 20.487 16.9489 18.8954 17.1982C14.5805 17.8751 11.1498 18.73 11.0083 19.585C10.9022 20.1906 10.5132 20.1194 10.3364 19.7275C10.0888 19.0507 10.3717 18.3382 16.2074 16.9489C18.7893 16.3433 21.7956 15.987 24.908 15.7733C25.5446 13.1015 25.9337 12.7097 26.2166 12.4247C26.7471 11.926 27.2069 12.5316 26.8179 12.7809C26.3934 13.0303 26.1812 13.3509 25.969 14.2415Z" fill="#1A1E40"/>
</svg>
